<svg width="51" height="50" fill="none" xmlns="http://www.w3.org/2000/svg">
    <path d="M26 45.5c11.322 0 20.5-9.178 20.5-20.5S36.322 4.5 25 4.5 4.5 13.678 4.5 25 13.678 45.5 25 45.5Z" fill="#383838" stroke="#D0BCFF"/>
    <path d="m33.902 30.65-8.466 3.778a1.08 1.08 0 0 1-.436.096c-.155 0-.3-.036-.431-.095l-8.47-3.78a1.045 1.045 0 0 1-.623-.95V20.05c0-.42.254-.798.646-.962l.073-.03.021-.009 8.372-3.491a1.072 1.072 0 0 1 .824 0l8.466 3.53c.02.009.034.023.053.032.033.018.064.036.095.057.302.19.498.511.498.873v9.647c0 .41-.244.782-.622.952Zm-16.31-1.626 6.35 2.834v-7.357l-6.35-2.865v7.388ZM25 17.654l-5.79 2.415L25 22.682l5.79-2.613L25 17.654Zm7.407 3.982-6.349 2.865v7.357l6.35-2.834v-7.388Z" fill="#D0BCFF"/>
</svg>
